<?xml version="1.0" standalone="no"?>
<!DOCTYPE svg PUBLIC "-//W3C//DTD SVG 20010904//EN"
 "http://www.w3.org/TR/2001/REC-SVG-20010904/DTD/svg10.dtd">
<svg version="1.0" xmlns="http://www.w3.org/2000/svg"
 width="895.000000pt" height="895.000000pt" viewBox="0 0 895.000000 895.000000"
 preserveAspectRatio="xMidYMid meet">
<metadata>
Created by potrace 1.14, written by Peter Selinger 2001-2017
</metadata>
<g transform="translate(0.000000,895.000000) scale(0.100000,-0.100000)"
fill="#000000" stroke="none">
<path d="M4265 8942 c-33 -1 -67 -5 -75 -8 -8 -3 -58 -8 -110 -10 -52 -3 -110
-6 -127 -7 -18 -1 -33 -4 -33 -7 0 -3 -17 -7 -39 -8 -21 -2 -47 -4 -57 -6 -11
-2 -53 -9 -94 -15 -41 -7 -82 -15 -90 -18 -8 -3 -28 -7 -45 -9 -32 -3 -51 -7
-75 -17 -8 -3 -31 -8 -51 -10 -19 -2 -45 -9 -56 -15 -11 -6 -22 -9 -25 -7 -2
2 -33 -4 -68 -15 -35 -10 -67 -17 -72 -14 -4 3 -8 1 -8 -3 0 -5 -21 -14 -47
-21 -27 -7 -52 -14 -58 -15 -5 -2 -34 -11 -63 -20 -29 -9 -58 -19 -65 -24 -6
-4 -21 -9 -32 -10 -11 -2 -39 -12 -62 -23 -24 -11 -49 -20 -57 -20 -8 0 -17
-4 -20 -9 -3 -5 -17 -12 -30 -15 -13 -3 -46 -16 -73 -28 -26 -12 -51 -21 -55
-20 -5 1 -8 -2 -8 -8 0 -5 -8 -10 -18 -10 -10 0 -27 -7 -38 -15 -10 -8 -26
-15 -35 -15 -9 0 -22 -7 -29 -15 -7 -8 -16 -13 -20 -10 -5 3 -14 0 -22 -7 -14
-14 -130 -72 -137 -68 -2 1 -7 -2 -10 -7 -8 -10 -57 -40 -98 -58 -17 -8 -35
-19 -38 -25 -4 -6 -11 -8 -16 -5 -5 4 -9 2 -9 -2 0 -5 -17 -17 -37 -28 -21
-10 -50 -30 -65 -44 -16 -14 -28 -21 -28 -17 0 7 -71 -41 -201 -136 -37 -26
-72 -48 -78 -48 -7 0 -9 -4 -6 -10 3 -5 2 -10 -3 -10 -4 0 -27 -16 -50 -36
-23 -19 -42 -33 -42 -29 0 3 -11 -4 -23 -17 -13 -13 -43 -39 -67 -58 -24 -19
-61 -52 -82 -72 -21 -21 -43 -38 -48 -38 -6 0 -10 -8 -10 -17 0 -9 -3 -14 -6
-10 -8 7 -244 -229 -244 -244 0 -6 -4 -8 -9 -4 -5 3 -12 -4 -16 -15 -4 -11
-11 -18 -16 -15 -5 4 -9 2 -9 -3 0 -5 -10 -20 -22 -34 -34 -37 -67 -76 -118
-138 -25 -30 -49 -58 -55 -62 -6 -4 -6 -8 -1 -8 6 0 3 -6 -6 -12 -9 -7 -50
-60 -92 -118 -41 -58 -80 -110 -86 -117 -5 -7 -10 -17 -10 -23 0 -5 -5 -10
-11 -10 -5 0 -8 -4 -5 -9 4 -5 3 -11 -1 -13 -12 -5 -99 -141 -107 -166 -4 -12
-11 -22 -16 -22 -5 0 -12 -10 -16 -22 -3 -12 -13 -28 -20 -36 -8 -7 -12 -18
-9 -23 4 -5 2 -9 -4 -9 -6 0 -13 -11 -17 -25 -3 -14 -11 -25 -17 -25 -6 0 -7
-3 -4 -7 4 -3 1 -13 -7 -22 -8 -9 -16 -23 -18 -31 -2 -8 -5 -17 -8 -20 -3 -3
-18 -32 -34 -65 -15 -33 -32 -67 -37 -75 -5 -8 -12 -22 -15 -30 -3 -8 -15 -32
-26 -52 -10 -21 -17 -38 -14 -38 3 0 -2 -15 -12 -32 -15 -27 -53 -118 -58
-138 -1 -6 -13 -39 -24 -65 -25 -62 -39 -105 -34 -105 4 0 1 -7 -6 -15 -7 -8
-9 -15 -5 -15 4 0 3 -6 -3 -12 -8 -11 -45 -123 -57 -177 -2 -9 -15 -56 -29
-105 -14 -49 -23 -93 -20 -97 3 -5 1 -9 -5 -9 -5 0 -8 -9 -6 -20 2 -11 0 -20
-4 -20 -4 0 -8 -6 -8 -12 0 -14 -9 -66 -18 -108 -3 -14 -8 -38 -11 -55 -2 -16
-7 -43 -10 -60 -3 -16 -7 -46 -9 -65 -2 -19 -4 -35 -5 -35 -1 0 -3 -13 -5 -30
-2 -16 -6 -50 -10 -75 -3 -25 -8 -72 -10 -105 -2 -33 -5 -60 -6 -60 -1 0 -2
-21 -4 -46 -1 -25 -4 -50 -6 -55 -14 -26 0 -596 17 -719 3 -22 7 -58 10 -80 5
-52 10 -89 19 -150 4 -27 8 -59 10 -70 1 -11 5 -27 8 -35 4 -8 9 -33 11 -55 3
-22 8 -51 10 -64 20 -91 43 -182 72 -286 19 -66 37 -130 39 -142 3 -12 10 -35
17 -50 6 -16 12 -34 14 -40 3 -19 34 -103 51 -142 8 -18 16 -39 18 -45 1 -6 8
-24 15 -41 7 -16 20 -50 29 -75 9 -25 27 -64 39 -88 12 -23 19 -42 15 -42 -5
0 -1 -6 7 -13 8 -7 15 -16 15 -22 0 -11 117 -247 126 -255 3 -3 21 -32 39 -65
18 -33 38 -67 46 -75 7 -8 13 -19 13 -25 1 -5 6 -17 13 -25 7 -8 20 -29 28
-45 8 -17 20 -35 25 -42 6 -7 15 -19 21 -26 7 -8 19 -27 27 -43 8 -16 24 -38
34 -50 19 -21 28 -35 65 -96 13 -21 29 -38 36 -38 7 0 10 -5 7 -10 -3 -6 -1
-10 4 -10 6 0 11 -5 11 -10 0 -6 13 -24 30 -42 16 -17 30 -34 30 -39 0 -4 15
-25 34 -46 19 -21 52 -58 73 -81 21 -24 46 -52 56 -63 9 -10 17 -24 17 -29 0
-5 7 -10 17 -10 9 0 14 -3 11 -6 -7 -7 198 -214 212 -214 6 0 9 -4 8 -8 -2 -4
15 -24 36 -43 22 -18 49 -43 61 -54 53 -49 139 -121 154 -129 9 -5 20 -15 24
-23 4 -7 12 -13 17 -13 6 0 18 -8 28 -18 10 -9 33 -28 52 -42 18 -14 46 -36
62 -48 15 -13 28 -21 28 -17 0 3 12 -6 27 -20 15 -14 33 -25 40 -25 6 0 13 -4
15 -9 2 -5 41 -33 88 -62 47 -29 87 -57 88 -61 2 -5 9 -8 17 -8 7 0 18 -7 25
-15 7 -9 15 -14 17 -11 3 2 21 -7 40 -20 19 -13 40 -21 46 -17 5 3 7 2 4 -4
-8 -13 455 -245 491 -246 6 0 12 -3 12 -7 0 -4 6 -7 13 -7 6 -1 39 -13 72 -27
33 -14 68 -26 78 -26 9 0 17 -5 17 -10 0 -6 6 -10 13 -9 6 1 19 -1 27 -4 49
-20 160 -55 160 -50 0 3 6 1 13 -5 6 -5 26 -13 42 -16 17 -3 55 -13 85 -22 51
-15 95 -26 160 -40 14 -3 42 -9 63 -15 21 -6 51 -12 67 -14 16 -2 37 -6 47 -9
10 -3 34 -7 53 -10 110 -15 131 -19 135 -27 3 -4 17 -4 30 1 13 5 27 5 30 1 5
-9 19 -10 112 -14 24 -1 43 -4 43 -8 0 -3 10 -5 23 -6 12 0 85 -3 162 -7 213
-11 295 -12 295 -4 0 4 11 3 24 -2 13 -5 26 -7 28 -5 2 2 60 7 128 11 199 10
207 11 220 19 9 5 11 4 6 -3 -5 -9 -1 -9 17 -3 13 5 55 12 93 16 103 10 128
15 136 28 6 9 8 9 8 -1 0 -7 4 -11 8 -8 4 2 26 7 47 10 22 3 62 10 89 16 26 5
52 8 56 5 5 -3 10 -1 12 4 1 5 21 12 43 15 22 4 54 11 70 16 17 5 41 11 55 13
14 2 32 7 41 11 9 4 27 8 40 10 13 2 32 7 41 10 9 4 22 9 30 10 29 6 74 19 83
25 6 3 19 7 29 8 11 2 25 8 33 14 7 6 13 9 13 6 0 -3 44 11 98 30 53 19 112
40 130 46 17 6 32 14 32 18 0 5 7 6 15 3 8 -4 15 -2 15 3 0 5 6 10 13 10 6 0
41 14 77 30 122 58 185 86 192 87 4 1 15 8 25 16 10 9 20 15 23 15 13 0 90 39
90 45 0 5 12 11 28 15 15 3 34 12 42 19 8 7 40 26 70 42 30 16 63 37 74 46 11
10 26 18 33 18 8 0 16 7 19 15 4 8 9 13 14 10 4 -2 16 5 28 15 12 11 24 20 27
20 8 0 164 108 191 131 11 11 24 19 28 19 4 0 18 11 32 25 14 14 29 25 35 25
6 0 7 5 3 12 -4 6 -3 8 3 5 6 -4 22 3 35 16 38 33 62 52 70 55 4 1 28 22 53
47 24 25 47 45 51 45 4 0 20 13 35 30 16 16 29 28 29 25 0 -2 20 16 45 42 25
25 45 49 45 54 0 5 4 8 8 7 11 -4 142 128 142 141 0 5 9 13 21 16 11 4 19 9
16 11 -2 2 17 26 42 54 25 27 51 55 56 62 9 12 55 66 99 118 7 8 26 33 42 55
16 22 40 53 54 69 14 15 24 32 22 37 -1 5 2 9 6 9 7 0 46 53 87 118 6 9 18 25
27 35 10 11 15 24 12 29 -3 4 -1 8 4 8 5 0 17 16 28 35 10 19 22 35 27 35 4 0
6 4 3 9 -4 5 -3 11 2 13 9 3 60 89 60 101 1 5 10 17 21 26 11 10 18 21 14 24
-3 4 1 15 9 24 19 23 89 153 82 153 -3 0 3 12 13 28 19 29 53 99 83 172 5 14
14 32 18 40 21 36 32 60 32 69 0 5 8 26 17 47 9 22 17 41 18 44 1 3 6 16 12
30 11 28 54 149 58 165 1 6 7 23 14 38 6 16 9 33 5 38 -3 5 -1 9 5 9 8 0 17
24 27 75 1 6 11 43 23 83 12 40 24 85 26 100 2 15 12 54 21 87 9 33 18 71 19
85 2 14 9 50 15 80 6 30 14 69 16 85 10 64 15 101 19 130 2 17 6 53 10 80 7
57 10 86 20 200 9 100 12 615 4 615 -3 0 -5 17 -4 38 1 20 0 41 -3 46 -3 5 -6
34 -8 65 -1 31 -5 67 -7 81 -3 14 -9 54 -13 90 -10 97 -12 115 -14 115 -2 0
-5 15 -13 65 -2 14 -8 45 -12 70 -5 25 -8 51 -6 58 1 6 -3 12 -8 12 -6 0 -8 6
-5 14 3 8 1 23 -4 33 -5 10 -12 37 -16 61 -3 23 -10 51 -16 62 -6 11 -9 20 -6
20 3 0 0 15 -5 33 -6 17 -12 37 -13 42 -1 6 -9 30 -16 55 -8 25 -14 47 -14 50
-2 10 -28 95 -36 115 -4 11 -18 49 -30 85 -23 70 -37 105 -51 132 -5 10 -9 22
-9 28 0 5 -14 40 -31 77 -17 38 -32 73 -33 78 -1 6 -8 21 -16 35 -8 14 -15 32
-16 40 -2 8 -8 16 -13 18 -6 2 -11 8 -11 13 0 16 -63 143 -74 151 -6 4 -8 8
-4 8 4 0 -8 26 -27 57 -19 31 -32 60 -29 65 3 4 1 8 -5 8 -5 0 -16 12 -24 28
-24 47 -57 104 -95 161 -20 31 -41 64 -47 73 -37 60 -80 118 -87 118 -4 0 -8
7 -8 15 0 8 -4 15 -10 15 -5 0 -10 7 -10 15 0 8 -4 15 -8 15 -4 0 -15 13 -25
29 -9 15 -32 46 -52 67 -19 21 -35 42 -35 46 0 6 -52 67 -92 110 -10 10 -16
18 -13 18 3 0 -22 28 -55 62 -33 34 -60 63 -60 66 0 6 -260 259 -331 322 -34
30 -71 63 -81 73 -10 9 -22 17 -28 17 -5 0 -14 8 -19 18 -6 9 -11 13 -11 9 0
-4 -15 6 -32 23 -18 17 -51 43 -73 58 -22 15 -48 35 -57 45 -9 10 -18 17 -21
15 -3 -3 -54 34 -82 59 -7 7 -15 9 -19 6 -3 -3 -8 2 -12 11 -3 9 -11 16 -17
16 -5 0 -24 10 -41 23 -17 12 -43 29 -58 36 -16 8 -28 18 -28 23 0 4 -6 8 -14
8 -8 0 -21 6 -28 13 -17 15 -88 57 -110 64 -10 3 -18 9 -18 14 0 5 -5 9 -11 9
-7 0 -28 10 -48 22 -20 13 -38 23 -41 24 -13 1 -85 40 -88 47 -2 4 -8 5 -13 1
-5 -3 -9 0 -9 5 0 6 -4 11 -9 11 -4 0 -41 15 -82 34 -41 19 -77 34 -82 35 -4
0 -24 9 -45 19 -20 11 -50 25 -67 32 -16 7 -38 16 -47 21 -10 5 -27 9 -38 9
-11 0 -20 5 -20 10 0 6 -7 10 -15 10 -8 0 -23 4 -33 9 -25 14 -162 59 -195 65
-16 3 -34 9 -40 14 -7 5 -25 12 -42 16 -30 6 -71 16 -90 20 -5 2 -18 7 -29 11
-10 4 -31 8 -47 9 -16 1 -29 4 -29 7 0 5 -35 13 -82 19 -4 1 -22 6 -40 11 -18
5 -51 12 -72 15 -21 2 -42 6 -45 8 -4 3 -27 8 -51 11 -25 4 -56 9 -70 12 -14
2 -47 6 -75 9 -27 3 -57 8 -65 11 -21 8 -111 15 -202 17 -43 0 -78 5 -78 10 0
4 -16 6 -35 4 -19 -2 -35 -2 -35 2 0 5 -327 7 -435 2z"/>
</g>
</svg>
